<svg t="1692080368070" class="icon" viewBox="0 0 1024 1024" version="1.1"
    xmlns="http://www.w3.org/2000/svg" p-id="4260">
    <path
        d="M960 39H64C25.6 39 0 64.595 0 102.986v819.028C0 960.405 25.6 986 64 986h896c38.4 0 64-25.595 64-63.986V102.986C1024 64.595 998.4 39 960 39zM192 858V719h64v139h-64z m192 0V719h64v139h-64z m192 0V719h64v139h-64z m192 0V719h64v139h-64z m1-458.903c0-38.342-25.6-63.904-64-63.904H321c-38.4 0-64 25.562-64 63.904V463H129V167h768v296H769v-63.903z"
        p-id="4261"></path>
</svg>