<svg t="1691654876954" class="icon" viewBox="0 0 1024 1024" version="1.1" xmlns="http://www.w3.org/2000/svg" p-id="1445"><path d="M595.733141 948.861826c-48.383889 18.261291-183.786245 85.781137-281.706021 73.706497C118.827568 998.461712 13.014477 839.656742 1.110504 697.641068c-6.655985-79.445151 17.215961-110.207747 56.89587-252.052756 29.077267-103.829095 25.855941-157.695639 97.983775-267.370054 111.466411-169.514278 413.119053-209.53552 543.785421-156.052975C889.599135 99.903771 1006.633533 228.692809 1006.633533 445.588312c0 124.863714-47.423891 326.036586-154.922312 420.756369-85.119805 74.943828-182.143583 54.677208-255.97808 82.517145zM560.959888 202.879535a90.325126 90.325126 0 0 0-123.093051 0L182.550088 442.601652c-12.671971 11.903973-16.298629 28.9066-9.066646 44.202566 7.253317 15.295965 21.738617 25.493275 39.829242 25.493275h9.066646v178.516924c0 44.202565 39.829242 81.599813 86.911801 81.599813h378.4098c47.061225 0 86.890468-37.397248 86.890467-81.599813v-178.516924h9.066646c18.090625 0 32.575925-10.19731 39.829242-25.493275 7.253317-15.295965 3.626658-32.298593-9.045312-44.202566L560.981221 202.879535z" fill="#1296db" p-id="1446"></path></svg>